<?xml version="1.0" encoding="utf-8"?>
<!-- Generator: Adobe Illustrator 27.7.0, SVG Export Plug-In . SVG Version: 6.00 Build 0)  -->
<svg version="1.2" baseProfile="tiny" id="g-manhattan-Artboard_1-interaction-img" xmlns="http://www.w3.org/2000/svg" xmlns:xlink="http://www.w3.org/1999/xlink"
	 x="0px" y="0px" viewBox="0 0 600 523" overflow="visible" xml:space="preserve">
<g>
	<path id="path-20_00000000213297507471265980000015074628903740402829_" fill="#00DCA6" d="M277.26,397.72
		c0.347,0.187,0.567,0.473,0.66,0.86c0.093,0.387,0.047,0.753-0.14,1.1l-0.7,1.22c-0.2,0.347-0.493,0.567-0.88,0.66
		c-0.387,0.093-0.747,0.047-1.08-0.14l-2.98-1.7v3.42c0,0.387-0.14,0.72-0.42,1c-0.28,0.28-0.613,0.427-1,0.44h-1.42
		c-0.387,0-0.727-0.147-1.02-0.44c-0.293-0.293-0.433-0.627-0.42-1v-3.42l-2.96,1.7c-0.347,0.2-0.713,0.247-1.1,0.14
		c-0.387-0.107-0.673-0.327-0.86-0.66l-0.72-1.22c-0.187-0.347-0.233-0.713-0.14-1.1c0.093-0.387,0.32-0.673,0.68-0.86l2.96-1.72
		l-2.96-1.72c-0.347-0.187-0.573-0.473-0.68-0.86c-0.107-0.387-0.06-0.753,0.14-1.1l0.72-1.22c0.2-0.347,0.487-0.567,0.86-0.66
		c0.373-0.093,0.74-0.047,1.1,0.14l2.96,1.7v-3.42c0-0.387,0.14-0.72,0.42-1c0.28-0.28,0.62-0.427,1.02-0.44h1.42
		c0.387,0,0.72,0.147,1,0.44c0.28,0.293,0.42,0.627,0.42,1v3.42l2.98-1.7c0.347-0.2,0.707-0.247,1.08-0.14
		c0.373,0.107,0.667,0.327,0.88,0.66l0.7,1.22c0.2,0.347,0.247,0.713,0.14,1.1c-0.107,0.387-0.327,0.673-0.66,0.86L274.3,396
		L277.26,397.72z"/>
	<path id="path-19_00000039844810779400136350000001655019247651163560_" fill="#00DCA6" d="M216.26,356.72
		c0.347,0.187,0.567,0.473,0.66,0.86c0.093,0.387,0.047,0.753-0.14,1.1l-0.7,1.22c-0.2,0.347-0.493,0.567-0.88,0.66
		c-0.387,0.093-0.747,0.047-1.08-0.14l-2.98-1.7v3.42c0,0.387-0.14,0.72-0.42,1c-0.28,0.28-0.613,0.427-1,0.44h-1.42
		c-0.387,0-0.727-0.147-1.02-0.44c-0.293-0.293-0.433-0.627-0.42-1v-3.42l-2.96,1.7c-0.347,0.2-0.713,0.247-1.1,0.14
		c-0.387-0.107-0.673-0.327-0.86-0.66l-0.72-1.22c-0.187-0.347-0.233-0.713-0.14-1.1c0.093-0.387,0.32-0.673,0.68-0.86l2.96-1.72
		l-2.96-1.72c-0.347-0.187-0.573-0.473-0.68-0.86c-0.107-0.387-0.06-0.753,0.14-1.1l0.72-1.22c0.2-0.347,0.487-0.567,0.86-0.66
		s0.74-0.047,1.1,0.14l2.96,1.7v-3.42c0-0.387,0.14-0.72,0.42-1c0.28-0.28,0.62-0.427,1.02-0.44h1.42c0.387,0,0.72,0.147,1,0.44
		c0.28,0.293,0.42,0.627,0.42,1v3.42l2.98-1.7c0.347-0.2,0.707-0.247,1.08-0.14s0.667,0.327,0.88,0.66l0.7,1.22
		c0.2,0.347,0.247,0.713,0.14,1.1c-0.107,0.387-0.327,0.673-0.66,0.86L213.3,355L216.26,356.72z"/>
	<path id="path-18_00000183237631651927930790000002373974188096215728_" fill="#00DCA6" d="M297.26,335.72
		c0.347,0.187,0.567,0.473,0.66,0.86c0.093,0.387,0.047,0.753-0.14,1.1l-0.7,1.22c-0.2,0.347-0.493,0.567-0.88,0.66
		c-0.387,0.093-0.747,0.047-1.08-0.14l-2.98-1.7v3.42c0,0.387-0.14,0.72-0.42,1c-0.28,0.28-0.613,0.427-1,0.44h-1.42
		c-0.387,0-0.727-0.147-1.02-0.44c-0.293-0.293-0.433-0.627-0.42-1v-3.42l-2.96,1.7c-0.347,0.2-0.713,0.247-1.1,0.14
		c-0.387-0.107-0.673-0.327-0.86-0.66l-0.72-1.22c-0.187-0.347-0.233-0.713-0.14-1.1c0.093-0.387,0.32-0.673,0.68-0.86l2.96-1.72
		l-2.96-1.72c-0.347-0.187-0.573-0.473-0.68-0.86c-0.107-0.387-0.06-0.753,0.14-1.1l0.72-1.22c0.2-0.347,0.487-0.567,0.86-0.66
		c0.373-0.093,0.74-0.047,1.1,0.14l2.96,1.7v-3.42c0-0.387,0.14-0.72,0.42-1c0.28-0.28,0.62-0.427,1.02-0.44h1.42
		c0.387,0,0.72,0.147,1,0.44c0.28,0.293,0.42,0.627,0.42,1v3.42l2.98-1.7c0.347-0.2,0.707-0.247,1.08-0.14
		c0.373,0.107,0.667,0.327,0.88,0.66l0.7,1.22c0.2,0.347,0.247,0.713,0.14,1.1c-0.107,0.387-0.327,0.673-0.66,0.86L294.3,334
		L297.26,335.72z"/>
	<path id="path-17_00000101070054613924912390000002357614589311798168_" fill="#00DCA6" d="M273.26,322.72
		c0.347,0.187,0.567,0.473,0.66,0.86c0.093,0.387,0.047,0.753-0.14,1.1l-0.7,1.22c-0.2,0.347-0.493,0.567-0.88,0.66
		c-0.387,0.093-0.747,0.047-1.08-0.14l-2.98-1.7v3.42c0,0.387-0.14,0.72-0.42,1c-0.28,0.28-0.613,0.427-1,0.44h-1.42
		c-0.387,0-0.727-0.147-1.02-0.44c-0.293-0.293-0.433-0.627-0.42-1v-3.42l-2.96,1.7c-0.347,0.2-0.713,0.247-1.1,0.14
		c-0.387-0.107-0.673-0.327-0.86-0.66l-0.72-1.22c-0.187-0.347-0.233-0.713-0.14-1.1c0.093-0.387,0.32-0.673,0.68-0.86l2.96-1.72
		l-2.96-1.72c-0.347-0.187-0.573-0.473-0.68-0.86c-0.107-0.387-0.06-0.753,0.14-1.1l0.72-1.22c0.2-0.347,0.487-0.567,0.86-0.66
		c0.373-0.093,0.74-0.047,1.1,0.14l2.96,1.7v-3.42c0-0.387,0.14-0.72,0.42-1c0.28-0.28,0.62-0.427,1.02-0.44h1.42
		c0.387,0,0.72,0.147,1,0.44c0.28,0.293,0.42,0.627,0.42,1v3.42l2.98-1.7c0.347-0.2,0.707-0.247,1.08-0.14
		c0.373,0.107,0.667,0.327,0.88,0.66l0.7,1.22c0.2,0.347,0.247,0.713,0.14,1.1c-0.107,0.387-0.327,0.673-0.66,0.86L270.3,321
		L273.26,322.72z"/>
	<path id="path-16_00000106827266599478674530000012661267909936664989_" fill="#00DCA6" d="M253.26,283.72
		c0.347,0.187,0.567,0.473,0.66,0.86c0.093,0.387,0.047,0.753-0.14,1.1l-0.7,1.22c-0.2,0.347-0.493,0.567-0.88,0.66
		c-0.387,0.093-0.747,0.047-1.08-0.14l-2.98-1.7v3.42c0,0.387-0.14,0.72-0.42,1c-0.28,0.28-0.613,0.427-1,0.44h-1.42
		c-0.387,0-0.727-0.147-1.02-0.44c-0.293-0.293-0.433-0.627-0.42-1v-3.42l-2.96,1.7c-0.347,0.2-0.713,0.247-1.1,0.14
		c-0.387-0.107-0.673-0.327-0.86-0.66l-0.72-1.22c-0.187-0.347-0.233-0.713-0.14-1.1c0.093-0.387,0.32-0.673,0.68-0.86l2.96-1.72
		l-2.96-1.72c-0.347-0.187-0.573-0.473-0.68-0.86c-0.107-0.387-0.06-0.753,0.14-1.1l0.72-1.22c0.2-0.347,0.487-0.567,0.86-0.66
		s0.74-0.047,1.1,0.14l2.96,1.7v-3.42c0-0.387,0.14-0.72,0.42-1c0.28-0.28,0.62-0.427,1.02-0.44h1.42c0.387,0,0.72,0.147,1,0.44
		c0.28,0.293,0.42,0.627,0.42,1v3.42l2.98-1.7c0.347-0.2,0.707-0.247,1.08-0.14s0.667,0.327,0.88,0.66l0.7,1.22
		c0.2,0.347,0.247,0.713,0.14,1.1c-0.107,0.387-0.327,0.673-0.66,0.86L250.3,282L253.26,283.72z"/>
	<path id="path-15_00000057148365954961132200000015111927596816056451_" fill="#00DCA6" d="M303.26,275.72
		c0.347,0.187,0.567,0.473,0.66,0.86c0.093,0.387,0.047,0.753-0.14,1.1l-0.7,1.22c-0.2,0.347-0.493,0.567-0.88,0.66
		c-0.387,0.093-0.747,0.047-1.08-0.14l-2.98-1.7v3.42c0,0.387-0.14,0.72-0.42,1c-0.28,0.28-0.613,0.427-1,0.44h-1.42
		c-0.387,0-0.727-0.147-1.02-0.44c-0.293-0.293-0.433-0.627-0.42-1v-3.42l-2.96,1.7c-0.347,0.2-0.713,0.247-1.1,0.14
		c-0.387-0.107-0.673-0.327-0.86-0.66l-0.72-1.22c-0.187-0.347-0.233-0.713-0.14-1.1c0.093-0.387,0.32-0.673,0.68-0.86l2.96-1.72
		l-2.96-1.72c-0.347-0.187-0.573-0.473-0.68-0.86c-0.107-0.387-0.06-0.753,0.14-1.1l0.72-1.22c0.2-0.347,0.487-0.567,0.86-0.66
		c0.373-0.093,0.74-0.047,1.1,0.14l2.96,1.7v-3.42c0-0.387,0.14-0.72,0.42-1c0.28-0.28,0.62-0.427,1.02-0.44h1.42
		c0.387,0,0.72,0.147,1,0.44c0.28,0.293,0.42,0.627,0.42,1v3.42l2.98-1.7c0.347-0.2,0.707-0.247,1.08-0.14
		c0.373,0.107,0.667,0.327,0.88,0.66l0.7,1.22c0.2,0.347,0.247,0.713,0.14,1.1c-0.107,0.387-0.327,0.673-0.66,0.86L300.3,274
		L303.26,275.72z"/>
	<path id="path-14_00000070076660589026150880000002473253372001850043_" fill="#00DCA6" d="M362.26,205.72
		c0.347,0.187,0.567,0.473,0.66,0.86c0.093,0.387,0.047,0.753-0.14,1.1l-0.7,1.22c-0.2,0.347-0.493,0.567-0.88,0.66
		c-0.387,0.093-0.747,0.047-1.08-0.14l-2.98-1.7v3.42c0,0.387-0.14,0.72-0.42,1s-0.613,0.427-1,0.44h-1.42
		c-0.387,0-0.727-0.147-1.02-0.44s-0.433-0.627-0.42-1v-3.42l-2.96,1.7c-0.347,0.2-0.713,0.247-1.1,0.14
		c-0.387-0.107-0.673-0.327-0.86-0.66l-0.72-1.22c-0.187-0.347-0.233-0.713-0.14-1.1c0.093-0.387,0.32-0.673,0.68-0.86l2.96-1.72
		l-2.96-1.72c-0.347-0.187-0.573-0.473-0.68-0.86c-0.107-0.387-0.06-0.753,0.14-1.1l0.72-1.22c0.2-0.347,0.487-0.567,0.86-0.66
		c0.373-0.093,0.74-0.047,1.1,0.14l2.96,1.7v-3.42c0-0.387,0.14-0.72,0.42-1s0.62-0.427,1.02-0.44h1.42c0.387,0,0.72,0.147,1,0.44
		s0.42,0.627,0.42,1v3.42l2.98-1.7c0.347-0.2,0.707-0.247,1.08-0.14c0.373,0.107,0.667,0.327,0.88,0.66l0.7,1.22
		c0.2,0.347,0.247,0.713,0.14,1.1c-0.107,0.387-0.327,0.673-0.66,0.86L359.3,204L362.26,205.72z"/>
	<path id="path-13_00000122696992418881324390000013379123411367667896_" fill="#00DCA6" d="M393.331,363.748
		c0.347,0.187,0.567,0.473,0.66,0.86c0.093,0.387,0.047,0.753-0.14,1.1l-0.7,1.22c-0.2,0.347-0.493,0.567-0.88,0.66
		c-0.387,0.093-0.747,0.047-1.08-0.14l-2.98-1.7v3.42c0,0.387-0.14,0.72-0.42,1c-0.28,0.28-0.613,0.427-1,0.44h-1.42
		c-0.387,0-0.727-0.147-1.02-0.44c-0.293-0.293-0.433-0.627-0.42-1v-3.42l-2.96,1.7c-0.347,0.2-0.713,0.247-1.1,0.14
		c-0.387-0.107-0.673-0.327-0.86-0.66l-0.72-1.22c-0.187-0.347-0.233-0.713-0.14-1.1c0.093-0.387,0.32-0.673,0.68-0.86l2.96-1.72
		l-2.96-1.72c-0.347-0.187-0.573-0.473-0.68-0.86c-0.107-0.387-0.06-0.753,0.14-1.1l0.72-1.22c0.2-0.347,0.487-0.567,0.86-0.66
		c0.373-0.093,0.74-0.047,1.1,0.14l2.96,1.7v-3.42c0-0.387,0.14-0.72,0.42-1c0.28-0.28,0.62-0.427,1.02-0.44h1.42
		c0.387,0,0.72,0.147,1,0.44c0.28,0.293,0.42,0.627,0.42,1v3.42l2.98-1.7c0.347-0.2,0.707-0.247,1.08-0.14
		c0.373,0.107,0.667,0.327,0.88,0.66l0.7,1.22c0.2,0.347,0.247,0.713,0.14,1.1c-0.107,0.387-0.327,0.673-0.66,0.86l-2.96,1.72
		L393.331,363.748z"/>
	<path id="path-12_00000098917244509884114740000008955456930793528252_" fill="#00DCA6" d="M234.26,236.72
		c0.347,0.187,0.567,0.473,0.66,0.86c0.093,0.387,0.047,0.753-0.14,1.1l-0.7,1.22c-0.2,0.347-0.493,0.567-0.88,0.66
		c-0.387,0.093-0.747,0.047-1.08-0.14l-2.98-1.7v3.42c0,0.387-0.14,0.72-0.42,1s-0.613,0.427-1,0.44h-1.42
		c-0.387,0-0.727-0.147-1.02-0.44s-0.433-0.627-0.42-1v-3.42l-2.96,1.7c-0.347,0.2-0.713,0.247-1.1,0.14
		c-0.387-0.107-0.673-0.327-0.86-0.66l-0.72-1.22c-0.187-0.347-0.233-0.713-0.14-1.1c0.093-0.387,0.32-0.673,0.68-0.86l2.96-1.72
		l-2.96-1.72c-0.347-0.187-0.573-0.473-0.68-0.86c-0.107-0.387-0.06-0.753,0.14-1.1l0.72-1.22c0.2-0.347,0.487-0.567,0.86-0.66
		s0.74-0.047,1.1,0.14l2.96,1.7v-3.42c0-0.387,0.14-0.72,0.42-1s0.62-0.427,1.02-0.44h1.42c0.387,0,0.72,0.147,1,0.44
		s0.42,0.627,0.42,1v3.42l2.98-1.7c0.347-0.2,0.707-0.247,1.08-0.14c0.373,0.107,0.667,0.327,0.88,0.66l0.7,1.22
		c0.2,0.347,0.247,0.713,0.14,1.1c-0.107,0.387-0.327,0.673-0.66,0.86L231.3,235L234.26,236.72z"/>
	<path id="path-11_00000057127595833637486360000012266552984872143536_" fill="#00DCA6" d="M249.26,271.72
		c0.347,0.187,0.567,0.473,0.66,0.86c0.093,0.387,0.047,0.753-0.14,1.1l-0.7,1.22c-0.2,0.347-0.493,0.567-0.88,0.66
		c-0.387,0.093-0.747,0.047-1.08-0.14l-2.98-1.7v3.42c0,0.387-0.14,0.72-0.42,1c-0.28,0.28-0.613,0.427-1,0.44h-1.42
		c-0.387,0-0.727-0.147-1.02-0.44c-0.293-0.293-0.433-0.627-0.42-1v-3.42l-2.96,1.7c-0.347,0.2-0.713,0.247-1.1,0.14
		c-0.387-0.107-0.673-0.327-0.86-0.66l-0.72-1.22c-0.187-0.347-0.233-0.713-0.14-1.1c0.093-0.387,0.32-0.673,0.68-0.86l2.96-1.72
		l-2.96-1.72c-0.347-0.187-0.573-0.473-0.68-0.86c-0.107-0.387-0.06-0.753,0.14-1.1l0.72-1.22c0.2-0.347,0.487-0.567,0.86-0.66
		s0.74-0.047,1.1,0.14l2.96,1.7v-3.42c0-0.387,0.14-0.72,0.42-1c0.28-0.28,0.62-0.427,1.02-0.44h1.42c0.387,0,0.72,0.147,1,0.44
		c0.28,0.293,0.42,0.627,0.42,1v3.42l2.98-1.7c0.347-0.2,0.707-0.247,1.08-0.14s0.667,0.327,0.88,0.66l0.7,1.22
		c0.2,0.347,0.247,0.713,0.14,1.1c-0.107,0.387-0.327,0.673-0.66,0.86L246.3,270L249.26,271.72z"/>
	<path id="path-10_00000171682616023346459550000005267730726484574367_" fill="#00DCA6" d="M192.26,401.72
		c0.347,0.187,0.567,0.473,0.66,0.86c0.093,0.387,0.047,0.753-0.14,1.1l-0.7,1.22c-0.2,0.347-0.493,0.567-0.88,0.66
		c-0.387,0.093-0.747,0.047-1.08-0.14l-2.98-1.7v3.42c0,0.387-0.14,0.72-0.42,1c-0.28,0.28-0.613,0.427-1,0.44h-1.42
		c-0.387,0-0.727-0.147-1.02-0.44c-0.293-0.293-0.433-0.627-0.42-1v-3.42l-2.96,1.7c-0.347,0.2-0.713,0.247-1.1,0.14
		c-0.387-0.107-0.673-0.327-0.86-0.66l-0.72-1.22c-0.187-0.347-0.233-0.713-0.14-1.1c0.093-0.387,0.32-0.673,0.68-0.86l2.96-1.72
		l-2.96-1.72c-0.347-0.187-0.573-0.473-0.68-0.86c-0.107-0.387-0.06-0.753,0.14-1.1l0.72-1.22c0.2-0.347,0.487-0.567,0.86-0.66
		s0.74-0.047,1.1,0.14l2.96,1.7v-3.42c0-0.387,0.14-0.72,0.42-1c0.28-0.28,0.62-0.427,1.02-0.44h1.42c0.387,0,0.72,0.147,1,0.44
		c0.28,0.293,0.42,0.627,0.42,1v3.42l2.98-1.7c0.347-0.2,0.707-0.247,1.08-0.14s0.667,0.327,0.88,0.66l0.7,1.22
		c0.2,0.347,0.247,0.713,0.14,1.1c-0.107,0.387-0.327,0.673-0.66,0.86L189.3,400L192.26,401.72z"/>
	<path id="path-9_00000146460630147500743820000017879294388384946109_" fill="#00DCA6" d="M259.26,364.72
		c0.347,0.187,0.567,0.473,0.66,0.86c0.093,0.387,0.047,0.753-0.14,1.1l-0.7,1.22c-0.2,0.347-0.493,0.567-0.88,0.66
		c-0.387,0.093-0.747,0.047-1.08-0.14l-2.98-1.7v3.42c0,0.387-0.14,0.72-0.42,1c-0.28,0.28-0.613,0.427-1,0.44h-1.42
		c-0.387,0-0.727-0.147-1.02-0.44c-0.293-0.293-0.433-0.627-0.42-1v-3.42l-2.96,1.7c-0.347,0.2-0.713,0.247-1.1,0.14
		c-0.387-0.107-0.673-0.327-0.86-0.66l-0.72-1.22c-0.187-0.347-0.233-0.713-0.14-1.1c0.093-0.387,0.32-0.673,0.68-0.86l2.96-1.72
		l-2.96-1.72c-0.347-0.187-0.573-0.473-0.68-0.86c-0.107-0.387-0.06-0.753,0.14-1.1l0.72-1.22c0.2-0.347,0.487-0.567,0.86-0.66
		s0.74-0.047,1.1,0.14l2.96,1.7v-3.42c0-0.387,0.14-0.72,0.42-1c0.28-0.28,0.62-0.427,1.02-0.44h1.42c0.387,0,0.72,0.147,1,0.44
		c0.28,0.293,0.42,0.627,0.42,1v3.42l2.98-1.7c0.347-0.2,0.707-0.247,1.08-0.14c0.373,0.107,0.667,0.327,0.88,0.66l0.7,1.22
		c0.2,0.347,0.247,0.713,0.14,1.1c-0.107,0.387-0.327,0.673-0.66,0.86L256.3,363L259.26,364.72z"/>
	<path id="path-29_00000111189793337422860120000015093199479527605914_" fill="#FA8C00" d="M291.282,148.453
		c0.004,1.353-0.28,2.691-0.832,3.926c-1.456,3.25-8.45,12.636-8.45,12.636s-6.968-9.386-8.45-12.636
		c-0.552-1.235-0.836-2.573-0.832-3.926c-0.043-5.169,4.112-9.395,9.281-9.438c0,0,0,0,0.001,0
		C287.169,139.058,291.325,143.283,291.282,148.453C291.282,148.453,291.282,148.453,291.282,148.453z"/>
	<path id="path-28_00000061431658293163838700000001296879136201030583_" fill="#FA8C00" d="M271.282,227.453
		c0.004,1.353-0.28,2.691-0.832,3.926c-1.456,3.25-8.45,12.636-8.45,12.636s-6.968-9.386-8.45-12.636
		c-0.553-1.235-0.836-2.573-0.832-3.926c-0.043-5.169,4.112-9.395,9.281-9.438c0,0,0,0,0.001,0
		C267.169,218.058,271.325,222.283,271.282,227.453C271.282,227.453,271.282,227.453,271.282,227.453z"/>
	<path id="path-27_00000021083725552459324890000007125370900831353753_" fill="#FFAEFF" d="M189.04,408c-0.28,0-0.5,0.22-0.5,0.5
		v19c0,0.28,0.22,0.5,0.5,0.5c0.28,0,0.5-0.22,0.5-0.5v-19C189.54,408.22,189.32,408,189.04,408z M183.54,409c-1.1,0-2,0.9-2,2
		s0.9,2,2,2c1.1,0,2-0.9,2-2S184.64,409,183.54,409z M194.04,409c-1.1,0-2,0.9-2,2s0.9,2,2,2c1.1,0,2-0.9,2-2S195.14,409,194.04,409
		z M182.04,414l-2.48,7.5c-0.1,0.26,0.22,0.5,0.5,0.5h1.48v4.5c0,0.28,0.22,0.5,0.5,0.5c0.28,0,0.5-0.22,0.5-0.5V422h2v4.5
		c0,0.28,0.22,0.5,0.5,0.5c0.28,0,0.5-0.22,0.5-0.5V422h1.5c0.28,0,0.6-0.24,0.5-0.5l-2.5-7.5H182.04z M192.54,414
		c-0.56,0-1,0.44-1,1v11.5c0,0.28,0.22,0.5,0.5,0.5s0.5-0.22,0.5-0.5V421h3v5.5c0,0.28,0.22,0.5,0.5,0.5s0.5-0.22,0.5-0.5V415
		c0-0.56-0.44-1-1-1H192.54z"/>
	<g id="path-26_00000150103593567684263340000004021065176733719712_">
		<path fill="#202020" d="M163.124,403.731c-0.203,3.523,0.353,7.144,1.75,10.369c0.714,1.605,1.612,3.096,2.928,4.136
			c0.166,0.124,0.323,0.263,0.499,0.371l0.24,0.161l0.309,0.181c0.203,0.126,0.424,0.219,0.638,0.325
			c0.034-0.594,0.105-1.165,0.228-1.728c0.756,1.396,2.533,2.522,4.412,3.449c-0.993,0.33-1.995,0.659-3.113,0.85
			c-1.11,0.193-2.357,0.233-3.654-0.018c0.528-0.333,1.027-0.711,1.481-1.103c-0.26-0.126-0.526-0.242-0.773-0.393l-0.374-0.22
			l-0.291-0.195c-0.213-0.134-0.403-0.297-0.602-0.449c-1.577-1.252-2.62-3.007-3.381-4.73c-1.515-3.508-2.095-7.327-1.881-11.109
			L163.124,403.731z"/>
	</g>
	<g id="path-25_00000024718449511020679800000007794323919761202078_">
		<path fill="#202020" d="M257.937,255.269c-2.207-1.837-3.48-4.653-3.439-7.503c0-1.428,0.393-2.854,1.043-4.113l0.263-0.463
			l0.097-0.159l0.059-0.09l0.238-0.36c0.175-0.227,0.336-0.466,0.529-0.679c-0.591-0.167-1.181-0.278-1.809-0.365
			c2.092-1.515,4.516-2.128,6.601-1.888c-1.626,1.333-2.473,3.127-2.635,4.743c-0.339-0.453-0.669-0.954-0.944-1.466
			c-0.163,0.178-0.296,0.38-0.444,0.569l-0.198,0.301l-0.05,0.075l-0.025,0.038l-0.056,0.096l-0.22,0.386
			c-0.539,1.055-0.862,2.21-0.861,3.394c-0.043,2.366,1.05,4.759,2.859,6.257L257.937,255.269z"/>
	</g>
	<g id="path-24_00000002384996722898485160000007743457160712899771_">
		<path fill="#202020" d="M242.74,173.705c-0.414-1.876-0.114-3.836,0.623-5.532c0.738-1.706,1.88-3.2,3.28-4.393
			c2.824-2.377,6.349-3.478,9.743-4.204c3.414-0.721,6.883-1.158,10.366-1.316l1.307-0.046l0.475-0.008l0.401-0.006l0.802-0.003
			l-0.724-1.647c2.012,0.793,3.95,1.687,5.806,2.651c-1.99,0.659-3.913,1.401-5.76,2.235l0.676-1.651l-0.782,0.003l-0.391,0.006
			l-0.464,0.008l-1.274,0.045c-3.396,0.153-6.783,0.581-10.107,1.282c-3.293,0.699-6.56,1.761-9.046,3.862
			c-2.424,2.045-4.048,5.332-3.379,8.376L242.74,173.705z"/>
	</g>
	<g id="checkpoint_00000024702573467668100320000017570717492232852641_">
		<path id="path-8_00000132072064868517282760000016306523117192476072_" fill="#FA8C00" d="M286.282,210.453
			c0.004,1.353-0.28,2.691-0.832,3.926c-1.456,3.25-8.45,12.636-8.45,12.636s-6.968-9.386-8.45-12.636
			c-0.552-1.235-0.836-2.573-0.832-3.926c-0.043-5.169,4.112-9.395,9.281-9.438c0,0,0,0,0.001,0
			C282.169,201.058,286.325,205.283,286.282,210.453C286.282,210.453,286.282,210.453,286.282,210.453z"/>
		<path id="path-7_00000159428938897500465250000014984323494741783711_" fill="#FA8C00" d="M296.282,197.453
			c0.004,1.353-0.28,2.691-0.832,3.926c-1.456,3.25-8.45,12.636-8.45,12.636s-6.968-9.386-8.45-12.636
			c-0.552-1.235-0.836-2.573-0.832-3.926c-0.043-5.169,4.112-9.395,9.281-9.438c0,0,0,0,0.001,0
			C292.169,188.058,296.325,192.283,296.282,197.453C296.282,197.453,296.282,197.453,296.282,197.453z"/>
		<path id="path-6_00000113347798513083022790000005301172528858631315_" fill="#FA8C00" d="M284.282,196.453
			c0.004,1.353-0.28,2.691-0.832,3.926c-1.456,3.25-8.45,12.636-8.45,12.636s-6.968-9.386-8.45-12.636
			c-0.552-1.235-0.836-2.573-0.832-3.926c-0.043-5.169,4.112-9.395,9.281-9.438c0,0,0,0,0.001,0
			C280.169,187.058,284.325,191.283,284.282,196.453C284.282,196.453,284.282,196.453,284.282,196.453z"/>
		<path id="path-5_00000001647816982529741820000014378756861262030246_" fill="#FA8C00" d="M253.282,275.453
			c0.004,1.353-0.279,2.691-0.832,3.926c-1.456,3.25-8.45,12.636-8.45,12.636s-6.968-9.386-8.45-12.636
			c-0.553-1.235-0.836-2.573-0.832-3.926c-0.043-5.169,4.112-9.395,9.281-9.438c0,0,0,0,0.001,0
			C249.169,266.058,253.325,270.283,253.282,275.453C253.282,275.453,253.282,275.453,253.282,275.453z"/>
		<path id="path-4_00000135685974174836555970000009804217806821487547_" fill="#FA8C00" d="M264.282,298.453
			c0.004,1.353-0.28,2.691-0.832,3.926c-1.456,3.25-8.45,12.636-8.45,12.636s-6.968-9.386-8.45-12.636
			c-0.553-1.235-0.836-2.573-0.832-3.926c-0.043-5.169,4.112-9.395,9.281-9.438c0,0,0,0,0.001,0
			C260.169,289.058,264.325,293.283,264.282,298.453C264.282,298.453,264.282,298.453,264.282,298.453z"/>
		<path id="path-3_00000065048693368286723420000010567365728119450046_" fill="#FA8C00" d="M244.282,352.453
			c0.004,1.353-0.279,2.691-0.832,3.926c-1.456,3.25-8.45,12.636-8.45,12.636s-6.968-9.386-8.45-12.636
			c-0.553-1.235-0.836-2.573-0.832-3.926c-0.043-5.169,4.112-9.395,9.281-9.438c0,0,0,0,0.001,0
			C240.169,343.058,244.325,347.283,244.282,352.453C244.282,352.453,244.282,352.453,244.282,352.453z"/>
		<path id="path-2_00000052092729443219750050000010394689998169937585_" fill="#FA8C00" d="M231.282,336.453
			c0.004,1.353-0.279,2.691-0.832,3.926c-1.456,3.25-8.45,12.636-8.45,12.636s-6.968-9.386-8.45-12.636
			c-0.553-1.235,3.28-13.321,8.449-13.364c0,0,0,0,0.001,0C227.169,327.058,231.325,331.283,231.282,336.453
			C231.282,336.453,231.282,336.453,231.282,336.453z"/>
		<path id="path-1_00000109740200298666705070000015223235069233292167_" fill="#FA8C00" d="M207.282,427.453
			c0.004,1.353-0.279,2.691-0.832,3.926c-1.456,3.25-8.45,12.636-8.45,12.636s-6.968-9.386-8.45-12.636
			c-0.553-1.235-0.836-2.573-0.832-3.926c-0.043-5.169,4.112-9.395,9.281-9.438c0,0,0,0,0.001,0
			C203.169,418.058,207.325,422.283,207.282,427.453C207.282,427.453,207.282,427.453,207.282,427.453z"/>
	</g>
	<path id="path-32_00000149349958204376066310000012675667492179519893_" fill="#FA8C00" d="M395.82,379.933
		c0.004,1.353-0.279,2.691-0.832,3.926c-1.456,3.25-8.45,12.636-8.45,12.636s-6.968-9.386-8.45-12.636
		c-0.553-1.235-0.836-2.573-0.832-3.926c-0.043-5.169,4.112-9.395,9.281-9.438l0,0c5.144-0.038,9.321,4.14,9.284,9.284
		L395.82,379.933z"/>
</g>
<style>
#g-manhattan-Artboard_1-interaction-img rect, #g-manhattan-Artboard_1-interaction-img circle, #g-manhattan-Artboard_1-interaction-img path, #g-manhattan-Artboard_1-interaction-img line, #g-manhattan-Artboard_1-interaction-img polyline, #g-manhattan-Artboard_1-interaction-img polygon { vector-effect: non-scaling-stroke; }
</style>
</svg>

