<?xml version="1.0" encoding="utf-8"?>
<!-- Generator: Adobe Illustrator 27.7.0, SVG Export Plug-In . SVG Version: 6.00 Build 0)  -->
<svg version="1.2" baseProfile="tiny" id="g-UWS-Artboard_1-interaction-img" xmlns="http://www.w3.org/2000/svg" xmlns:xlink="http://www.w3.org/1999/xlink"
	 x="0px" y="0px" viewBox="0 0 600 523" overflow="visible" xml:space="preserve">
<g>
	<path id="step-17_00000170961360146789941400000000427206679143518612_" fill="#FFA025" d="M228.282,189.882
		c0.004,1.349-0.279,2.683-0.832,3.914c-1.456,3.24-8.45,12.598-8.45,12.598s-6.968-9.358-8.45-12.598
		c-0.553-1.231-0.836-2.565-0.832-3.914c-0.043-5.154,4.112-9.367,9.281-9.41c0,0,0,0,0.001,0
		C224.169,180.515,228.325,184.728,228.282,189.882C228.282,189.882,228.282,189.882,228.282,189.882z"/>
	<path id="step-16_00000170265322084679393630000015764801175919283390_" fill="#FFA025" d="M223.282,195.864
		c0.004,1.349-0.279,2.683-0.832,3.914c-1.456,3.24-8.45,12.598-8.45,12.598s-6.968-9.358-8.45-12.598
		c-0.553-1.231-0.836-2.565-0.832-3.914c-0.043-5.154,4.112-9.367,9.281-9.41c0,0,0,0,0.001,0
		C219.169,186.497,223.325,190.71,223.282,195.864C223.282,195.864,223.282,195.864,223.282,195.864z"/>
	<path id="step-15_00000018928451624783912490000008188152943440290236_" fill="#FFA025" d="M191.282,255.684
		c0.004,1.349-0.279,2.683-0.832,3.914c-1.456,3.24-8.45,12.598-8.45,12.598s-6.968-9.358-8.45-12.598
		c-0.553-1.231-0.836-2.565-0.832-3.914c-0.043-5.154,4.112-9.367,9.281-9.41c0,0,0,0,0.001,0
		C187.169,246.317,191.325,250.53,191.282,255.684C191.282,255.684,191.282,255.684,191.282,255.684z"/>
	<path id="step-14_00000072247669958703643640000004056582817585836188_" fill="#FFA025" d="M192.282,262.663
		c0.004,1.349-0.279,2.683-0.832,3.914c-1.456,3.24-8.45,12.598-8.45,12.598s-6.968-9.358-8.45-12.598
		c-0.553-1.231-0.836-2.565-0.832-3.914c-0.043-5.154,4.112-9.367,9.281-9.41c0,0,0,0,0.001,0
		C188.169,253.296,192.325,257.509,192.282,262.663C192.282,262.663,192.282,262.663,192.282,262.663z"/>
	<path id="step-13_00000147193832940013881110000011647364400173878462_" fill="#FFA025" d="M197.282,244.717
		c0.004,1.349-0.279,2.683-0.832,3.914c-1.456,3.24-8.45,12.598-8.45,12.598s-6.968-9.358-8.45-12.598
		c-0.553-1.231-0.836-2.565-0.832-3.914c-0.043-5.154,4.112-9.367,9.281-9.41c0,0,0,0,0.001,0
		C193.169,235.35,197.325,239.563,197.282,244.717C197.282,244.717,197.282,244.717,197.282,244.717z"/>
	<path id="step-12_00000182486484234858631160000005978054575664599439_" fill="#FFA025" d="M180.282,277.618
		c0.004,1.349-0.279,2.683-0.832,3.914c-1.456,3.24-8.45,12.598-8.45,12.598s-6.968-9.358-8.45-12.598
		c-0.553-1.231-0.836-2.565-0.832-3.914c-0.043-5.154,4.112-9.367,9.281-9.41c0,0,0,0,0.001,0
		C176.169,268.251,180.325,272.464,180.282,277.618C180.282,277.618,180.282,277.618,180.282,277.618z"/>
	<path id="step-11_00000121268509752276854590000016564232052270203020_" fill="#FFA025" d="M216.282,218.795
		c0.004,1.349-0.279,2.683-0.832,3.914c-1.456,3.24-8.45,12.598-8.45,12.598s-6.968-9.358-8.45-12.598
		c-0.553-1.231-0.836-2.565-0.832-3.914c-0.043-5.154,4.112-9.367,9.281-9.41c0,0,0,0,0.001,0
		C212.169,209.428,216.325,213.641,216.282,218.795C216.282,218.795,216.282,218.795,216.282,218.795z"/>
	<path id="step-10_00000062165000901492174600000017317349076348052664_" fill="#FFA025" d="M140.282,364.358
		c0.004,1.349-0.279,2.683-0.832,3.914c-1.456,3.24-8.45,12.598-8.45,12.598s-6.968-9.358-8.45-12.598
		c-0.553-1.231-0.836-2.565-0.832-3.914c-0.043-5.154,4.112-9.367,9.281-9.41c0,0,0,0,0.001,0
		C136.169,354.991,140.325,359.203,140.282,364.358C140.282,364.357,140.282,364.357,140.282,364.358z"/>
	<path id="step-9_00000010279621028908062060000010272529935426197390_" fill="#FFA025" d="M154.282,330.46
		c0.004,1.349-0.279,2.683-0.832,3.914c-1.456,3.24-8.45,12.598-8.45,12.598s-6.968-9.358-8.45-12.598
		c-0.553-1.231-0.836-2.565-0.832-3.914c-0.043-5.154,4.112-9.367,9.281-9.41c0,0,0,0,0.001,0
		C150.169,321.093,154.325,325.305,154.282,330.46C154.282,330.459,154.282,330.459,154.282,330.46z"/>
	<path id="step-8_00000059281511902598353150000009102166390520532868_" fill="#FFA025" d="M146.282,306.531
		c0.004,1.349-0.279,2.683-0.832,3.914c-1.456,3.24-8.45,12.598-8.45,12.598s-6.968-9.358-8.45-12.598
		c-0.553-1.231-0.836-2.565-0.832-3.914c-0.043-5.154,4.112-9.367,9.281-9.41c0,0,0,0,0.001,0
		C142.169,297.165,146.325,301.377,146.282,306.531C146.282,306.531,146.282,306.531,146.282,306.531z"/>
	<path id="step-7_00000056393293088851191870000007637496201513744790_" fill="#FFA025" d="M146.282,302.543
		c0.004,1.349-0.279,2.683-0.832,3.914c-1.456,3.24-8.45,12.598-8.45,12.598s-6.968-9.358-8.45-12.598
		c-0.553-1.231-0.836-2.565-0.832-3.914c-0.043-5.154,4.112-9.367,9.281-9.41c0,0,0,0,0.001,0
		C142.169,293.177,146.325,297.389,146.282,302.543C146.282,302.543,146.282,302.543,146.282,302.543z"/>
	<path id="step-6_00000152222389523742732850000017398963719037682835_" fill="#FFA025" d="M146.282,293.57
		c0.004,1.349-0.279,2.683-0.832,3.914c-1.456,3.24-8.45,12.598-8.45,12.598s-6.968-9.358-8.45-12.598
		c-0.553-1.231-0.836-2.565-0.832-3.914c-0.043-5.154,4.112-9.367,9.281-9.41c0,0,0,0,0.001,0
		C142.169,284.203,146.325,288.416,146.282,293.57C146.282,293.57,146.282,293.57,146.282,293.57z"/>
	<path id="step-5_00000110430263081376006240000010782672264611299717_" fill="#FFA025" d="M140.282,289.582
		c0.004,1.349-0.279,2.683-0.832,3.914c-1.456,3.24-8.45,12.598-8.45,12.598s-6.968-9.358-8.45-12.598
		c-0.553-1.231-0.836-2.565-0.832-3.914c-0.043-5.154,4.112-9.367,9.281-9.41c0,0,0,0,0.001,0
		C136.169,280.215,140.325,284.428,140.282,289.582C140.282,289.582,140.282,289.582,140.282,289.582z"/>
	<path id="step-4_00000083083255988997133710000002125507194968458152_" fill="#FFA025" d="M166.282,251.696
		c0.004,1.349-0.279,2.683-0.832,3.914c-1.456,3.24-8.45,12.598-8.45,12.598s-6.968-9.358-8.45-12.598
		c-0.553-1.231-0.836-2.565-0.832-3.914c-0.043-5.154,4.112-9.367,9.281-9.41c0,0,0,0,0.001,0
		C162.169,242.329,166.325,246.542,166.282,251.696C166.282,251.696,166.282,251.696,166.282,251.696z"/>
	<path id="step-3_00000016061605099303838610000003070831374757333890_" fill="#FFA025" d="M160.282,262.663
		c0.004,1.349-0.279,2.683-0.832,3.914c-1.456,3.24-8.45,12.598-8.45,12.598s-6.968-9.358-8.45-12.598
		c-0.553-1.231-0.836-2.565-0.832-3.914c-0.043-5.154,4.112-9.367,9.281-9.41c0,0,0,0,0.001,0
		C156.169,253.296,160.325,257.509,160.282,262.663C160.282,262.663,160.282,262.663,160.282,262.663z"/>
	<path id="step-2_00000102531285213269666370000014546023187611246728_" fill="#FFA025" d="M173.282,240.729
		c0.004,1.349-0.279,2.683-0.832,3.914c-1.456,3.24-8.45,12.598-8.45,12.598s-6.968-9.358-8.45-12.598
		c-0.553-1.231-0.836-2.565-0.832-3.914c-0.043-5.154,4.112-9.367,9.281-9.41c0,0,0,0,0.001,0
		C169.169,231.362,173.325,235.575,173.282,240.729C173.282,240.729,173.282,240.729,173.282,240.729z"/>
	<path id="step-1_00000039839071666437948520000010862031188865765049_" fill="#FFA025" d="M253.282,144.02
		c0.004,1.349-0.279,2.683-0.832,3.914c-1.456,3.24-8.45,12.598-8.45,12.598s-6.968-9.358-8.45-12.598
		c-0.553-1.231-0.836-2.565-0.832-3.914c-0.043-5.154,4.112-9.367,9.281-9.41c0,0,0,0,0.001,0
		C249.169,134.653,253.325,138.866,253.282,144.02C253.282,144.02,253.282,144.02,253.282,144.02z"/>
</g>
<style>
#g-UWS-Artboard_1-interaction-img rect, #g-UWS-Artboard_1-interaction-img circle, #g-UWS-Artboard_1-interaction-img path, #g-UWS-Artboard_1-interaction-img line, #g-UWS-Artboard_1-interaction-img polyline, #g-UWS-Artboard_1-interaction-img polygon { vector-effect: non-scaling-stroke; }
</style>
</svg>

